<?xml version="1.0" encoding="utf-8"?>
<!-- Generator: Adobe Illustrator 16.0.0, SVG Export Plug-In . SVG Version: 6.00 Build 0)  -->
<!DOCTYPE svg PUBLIC "-//W3C//DTD SVG 1.1//EN" "http://www.w3.org/Graphics/SVG/1.1/DTD/svg11.dtd">
<svg version="1.1" id="Layer_1" xmlns="http://www.w3.org/2000/svg" xmlns:xlink="http://www.w3.org/1999/xlink" x="0px" y="0px"
	 width="171px" height="55.492px" viewBox="0 0 171 55.492" enable-background="new 0 0 171 55.492" xml:space="preserve">
<g>
	<g>
		<path fill="#1E1E1E" d="M75.532,38.9h-6.211l-8.493-23.849h5.993l5.481,17.717h0.248l5.497-17.717h5.978L75.532,38.9z"/>
		<path fill="#1E1E1E" d="M85.796,27.068c0-7.393,4.44-12.33,11.427-12.33c6.987,0,11.429,4.938,11.429,12.33
			c0,7.374-4.439,12.295-11.429,12.295C90.237,39.365,85.796,34.443,85.796,27.068z M102.952,27.053
			c0-4.362-1.895-7.856-5.699-7.856c-3.862,0-5.762,3.494-5.762,7.856c0,4.363,1.897,7.811,5.762,7.811
			C101.059,34.862,102.952,31.416,102.952,27.053z"/>
		<path fill="#1E1E1E" d="M111.882,8.624c0-1.692,1.459-3.059,3.261-3.059c1.786,0,3.244,1.366,3.244,3.059
			c0,1.677-1.458,3.043-3.244,3.043C113.341,11.667,111.882,10.3,111.882,8.624z M112.317,15.051h5.619v23.848h-5.619V15.051z"/>
		<path fill="#1E1E1E" d="M121.599,27.068c0-7.282,4.408-12.33,11.395-12.33c5.822,0,9.857,3.398,10.25,8.571h-5.373
			c-0.435-2.3-2.097-4.036-4.799-4.036c-3.461,0-5.776,2.885-5.776,7.698c0,4.877,2.269,7.812,5.776,7.812
			c2.471,0,4.316-1.476,4.799-4.038h5.373c-0.403,5.062-4.227,8.616-10.221,8.616C125.899,39.365,121.599,34.287,121.599,27.068z"/>
		<path fill="#1E1E1E" d="M145.759,27.115c0-7.362,4.454-12.375,11.287-12.375c5.871,0,10.9,3.679,10.9,12.05v1.726h-16.615
			c0.05,4.081,2.453,6.474,6.089,6.474c2.421,0,4.282-1.056,5.044-3.075l5.246,0.591c-0.992,4.146-4.813,6.86-10.37,6.86
			C150.151,39.365,145.759,34.6,145.759,27.115z M162.558,24.727c-0.031-3.247-2.205-5.607-5.436-5.607
			c-3.354,0-5.604,2.562-5.775,5.607H162.558z"/>
	</g>
	
		<linearGradient id="SVGID_1_" gradientUnits="userSpaceOnUse" x1="386.9766" y1="895.5313" x2="418.6208" y2="895.5313" gradientTransform="matrix(1 0 0 1 -356.3594 -872.9453)">
		<stop  offset="0" style="stop-color:#EC1C2B"/>
		<stop  offset="1" style="stop-color:#A41E59"/>
	</linearGradient>
	<path fill="url(#SVGID_1_)" d="M36.401,9.677c9.378,0,16.364,5.313,16.347,15.308c0.018,7.27-1.107,10.54-3.924,10.54
		c-1.494,0-2.376-1.193-2.394-2.938V15.836h-4.909v1.972h-0.246c-0.563-1.55-3.944-2.974-7.761-2.445
		c-2.434,0.32-4.821,1.478-6.61,3.479l3.73,3.729c1.054-1.344,2.645-2.158,4.711-2.158c4.38,0,6,2.146,6.015,6.932
		c0.053,5.14-1.6,7.762-6.053,7.762c-2.304,0-3.841-0.94-4.801-2.385l-3.86,3.86c1.777,2.197,4.292,3.439,7.2,3.574
		c3.995,0.193,7.09-1.584,7.919-3.674h0.212c0.421,2.641,2.744,4.08,6.297,3.886c7.565-0.278,9.733-7.038,9.71-15.078
		c0.023-11.562-7.756-20.499-21.463-20.499c-7.423,0-13.261,2.331-17.217,6.456l3.775,3.776
		C26.022,11.656,30.479,9.677,36.401,9.677z"/>
	
		<linearGradient id="SVGID_2_" gradientUnits="userSpaceOnUse" x1="386.9766" y1="918.2637" x2="418.6244" y2="918.2637" gradientTransform="matrix(1 0 0 1 -356.3594 -872.9453)">
		<stop  offset="0" style="stop-color:#EC1C2B"/>
		<stop  offset="1" style="stop-color:#A41E59"/>
	</linearGradient>
	<path fill="url(#SVGID_2_)" d="M46.564,43.637c-0.903,0.303-1.511,0.489-1.511,0.489h-0.002c0,0,0,0.006-0.002,0.008
		c-2.075,0.607-5.196,1.283-8.208,1.283c-6.184,0-10.842-1.789-13.869-5.159l-3.853,3.852c3.942,4.072,9.825,6.271,17.421,6.271
		c1.903,0,3.859-0.205,5.646-0.522c0,0,1.908-0.338,5.991-1.722L46.564,43.637z"/>
	<g>
		
			<linearGradient id="SVGID_3_" gradientUnits="userSpaceOnUse" x1="361.3682" y1="900.6211" x2="386.923" y2="900.6211" gradientTransform="matrix(1 0 0 1 -356.3594 -872.9453)">
			<stop  offset="0" style="stop-color:#00ADD0"/>
			<stop  offset="1" style="stop-color:#40449B"/>
		</linearGradient>
		<path fill="url(#SVGID_3_)" d="M18.896,27.582c0.024-5.092,1.446-9.429,4.186-12.562l-3.776-3.776
			c-3.79,3.95-5.847,9.546-5.896,16.338c0,0.068-0.009,0.134-0.009,0.203c0.009,6.963,1.999,12.477,5.72,16.322l3.853-3.853
			c-2.677-2.979-4.08-7.189-4.08-12.542C18.893,27.669,18.896,27.628,18.896,27.582z"/>
	</g>
	<g>
		
			<linearGradient id="SVGID_4_" gradientUnits="userSpaceOnUse" x1="361.3701" y1="900.6543" x2="386.921" y2="900.6543" gradientTransform="matrix(1 0 0 1 -356.3594 -872.9453)">
			<stop  offset="0" style="stop-color:#00ADD0"/>
			<stop  offset="1" style="stop-color:#40449B"/>
		</linearGradient>
		<path fill="url(#SVGID_4_)" d="M29.151,27.359c0.008-1.905,0.524-3.568,1.482-4.793l-3.73-3.727
			c-1.815,2.034-3.014,4.937-3.014,8.731c0,0.003,0,0.005,0,0.009c0,3.819,1.031,6.86,2.757,8.999l3.86-3.856
			c-0.922-1.382-1.314-3.224-1.35-5.143C29.153,27.51,29.151,27.438,29.151,27.359z"/>
	</g>
	<g>
		
			<linearGradient id="SVGID_5_" gradientUnits="userSpaceOnUse" x1="361.3682" y1="892.7822" x2="386.92" y2="892.7822" gradientTransform="matrix(1 0 0 1 -356.3594 -872.9453)">
			<stop  offset="0" style="stop-color:#00ADD0"/>
			<stop  offset="1" style="stop-color:#40449B"/>
		</linearGradient>
		<path fill="url(#SVGID_5_)" d="M8.25,27.582c0.077-2.816,0.445-5.752,1.137-8.773c1.178-5.128,3.41-8.847,5.93-11.555L11.66,3.598
			c-3.151,3.296-5.928,7.816-7.357,14.043c-0.778,3.397-1.183,6.73-1.241,9.941c-0.055,2.947,0.189,5.791,0.702,8.494l4.916-1.741
			C8.34,32.186,8.188,29.927,8.25,27.582z"/>
	</g>
	<g>
		
			<linearGradient id="SVGID_6_" gradientUnits="userSpaceOnUse" x1="361.3701" y1="918.6982" x2="386.9258" y2="918.6982" gradientTransform="matrix(1 0 0 1 -356.3594 -872.9453)">
			<stop  offset="0" style="stop-color:#00ADD0"/>
			<stop  offset="1" style="stop-color:#40449B"/>
		</linearGradient>
		<path fill="url(#SVGID_6_)" d="M5.159,41.318c1.408,4.029,3.49,7.609,6.17,10.576l3.639-3.635
			c-2.171-2.415-3.845-5.344-4.986-8.648L5.159,41.318z"/>
	</g>
</g>
</svg>
